<svg width="18" height="23" viewBox="0 0 18 23" fill="none" xmlns="http://www.w3.org/2000/svg">
<g clip-path="url(#clip0_0_91)">
<path fill-rule="evenodd" clip-rule="evenodd" d="M15.362 0H6.40201C5.91701 0 5.47401 0.262584 5.25701 0.6785L0.137015 10.4918L0.0780147 10.6212C-0.221985 11.4051 0.380015 12.2667 1.28201 12.2667H4.55301L1.36301 20.4221C0.891015 21.6277 2.42901 22.6263 3.42301 21.7609L17.503 9.49421L17.603 9.39646C18.321 8.62788 17.763 7.36 16.642 7.36H13.592L16.507 1.77483C16.932 0.96025 16.313 0 15.362 0ZM13.289 2.45333L10.377 8.0385L10.318 8.16788C10.018 8.95179 10.62 9.81333 11.522 9.81333H13.33L5.62001 16.5312L7.60001 11.4712L7.64401 11.3371C7.84401 10.5762 7.24601 9.81333 6.40201 9.81333H3.35201L7.19201 2.45333H13.289Z" fill="#32404D"/>
</g>
<defs>
<clipPath id="clip0_0_91">
<rect width="18" height="23" fill="white"/>
</clipPath>
</defs>
</svg>
