<svg width="16" height="16" viewBox="0 0 16 16" fill="none" xmlns="http://www.w3.org/2000/svg">
<path fill-rule="evenodd" clip-rule="evenodd" d="M8 0C9.328 0 10.612 0.325 11.758 0.937C12.191 1.168 12.355 1.707 12.124 2.14C11.892 2.573 11.354 2.736 10.921 2.505C10.031 2.03 9.034 1.778 8 1.778C4.564 1.778 1.778 4.564 1.778 8C1.778 11.436 4.564 14.222 8 14.222C11.436 14.222 14.222 11.436 14.222 8C14.222 7.51 14.62 7.111 15.112 7.111C15.602 7.111 16 7.509 16 8C16 12.418 12.418 16 8 16C3.582 16 0 12.418 0 8C0 3.582 3.582 0 8 0ZM15.702 2.002C16.04 2.303 16.095 2.805 15.844 3.169L15.775 3.257L8.665 11.257C8.349 11.612 7.816 11.653 7.452 11.367L7.372 11.295L4.705 8.629C4.358 8.281 4.358 7.719 4.705 7.371C5.025 7.051 5.529 7.026 5.878 7.298L5.962 7.371L7.962 9.371L14.447 2.076C14.773 1.709 15.335 1.676 15.702 2.002Z" fill="#023135"/>
</svg>
