<svg width="24" height="21" viewBox="0 0 24 21" fill="none" xmlns="http://www.w3.org/2000/svg">
<g clip-path="url(#clip0_0_102)">
<path d="M19.688 0C21.784 0 23.498 1.64 23.618 3.706L23.625 3.938V17.062C23.625 19.159 21.985 20.874 19.919 20.993L19.687 21H3.938C1.842 21 0.128 19.36 0.008 17.294L0 17.062V3.938C0 1.842 1.64 0.128 3.706 0.0079999L3.938 0H19.688ZM19.688 2.625H3.938C3.265 2.625 2.71 3.132 2.634 3.785L2.625 3.937V17.063C2.625 17.735 3.132 18.29 3.785 18.366L3.937 18.375H19.687C20.36 18.375 20.915 17.868 20.991 17.215L21 17.063V15.75H13.91C11.385 15.75 9.324 13.77 9.194 11.278L9.187 11.028V9.972C9.187 7.448 11.167 5.387 13.659 5.257L13.909 5.25H21V3.937C21 3.265 20.493 2.71 19.84 2.634L19.688 2.625ZM20.998 7.875H13.91C12.88 7.875 12.024 8.617 11.847 9.595L11.822 9.781L11.813 9.972V11.028C11.813 12.122 12.651 13.02 13.72 13.116L13.91 13.125H21V7.875H20.998ZM14.438 9.188C15.163 9.188 15.75 9.775 15.75 10.5C15.75 11.224 15.163 11.813 14.437 11.813C13.712 11.813 13.125 11.225 13.125 10.5C13.125 9.775 13.712 9.187 14.438 9.187V9.188Z" fill="#32404D"/>
</g>
<defs>
<clipPath id="clip0_0_102">
<rect width="24" height="21" fill="white"/>
</clipPath>
</defs>
</svg>
