<svg width="22" height="22" viewBox="0 0 22 22" fill="none" xmlns="http://www.w3.org/2000/svg">
<g clip-path="url(#clip0_0_113)">
<path fill-rule="evenodd" clip-rule="evenodd" d="M18.333 0H3.667C1.642 0 0 1.642 0 3.667V14.667L0.006 14.882C0.118 16.806 1.715 18.333 3.666 18.333H6.826L10.136 21.642L10.251 21.744C10.731 22.117 11.424 22.083 11.864 21.642L15.173 18.333H18.333C20.358 18.333 22 16.691 22 14.667V3.667C22 1.642 20.358 0 18.333 0ZM3.667 2.444H18.333C19.008 2.444 19.556 2.992 19.556 3.667V14.667C19.556 15.341 19.008 15.889 18.333 15.889H14.667L14.506 15.899C14.241 15.935 13.993 16.056 13.802 16.247L11 19.048L8.198 16.247C7.968 16.017 7.658 15.889 7.333 15.889H3.667C2.992 15.889 2.444 15.341 2.444 14.667V3.667C2.444 2.992 2.992 2.444 3.667 2.444Z" fill="#32404D"/>
</g>
<defs>
<clipPath id="clip0_0_113">
<rect width="22" height="22" fill="white"/>
</clipPath>
</defs>
</svg>
