<svg width="112" height="44" viewBox="0 0 112 44" fill="none" xmlns="http://www.w3.org/2000/svg">
<path d="M37.2082 2.64848C35.6986 2.43733 31.6105 2.41923 31.535 2.41923C27.1551 2.3036 24.6612 2.91594 24.2435 3.92948C23.6699 5.31806 23.9024 7.20335 24.157 8.63014C24.4579 10.3194 25.1161 12.0619 26.8643 12.7064C27.3997 12.9055 27.9723 12.9688 28.543 13.0141C29.961 13.1277 31.3911 13.1377 32.8122 13.0121C33.4684 12.9537 34.1266 12.8683 34.7546 12.6692C37.4447 11.8196 38.5749 9.30583 39.062 6.73982C39.4253 4.81934 38.7168 2.86265 37.2072 2.64848H37.2082ZM46.74 6.73982C47.2271 9.30583 48.3573 11.8196 51.0474 12.6692C51.6754 12.8683 52.3336 12.9537 52.9898 13.0111C54.4109 13.1377 55.841 13.1277 57.262 13.0141C57.8297 12.9688 58.4023 12.9055 58.9377 12.7064C60.6859 12.0619 61.3471 10.3194 61.647 8.63014C61.8996 7.20335 62.1321 5.31806 61.5594 3.92948C61.1398 2.91594 58.6499 2.3036 54.2669 2.41923C54.1935 2.41923 50.1034 2.43633 48.5948 2.64848C47.0852 2.86265 46.3766 4.81934 46.74 6.73982ZM41.7793 5.44374C41.6183 5.72629 41.4774 6.09731 41.3989 6.57593C40.9823 9.12183 40.1922 11.8497 37.9892 13.4374C36.5792 14.4529 34.7878 14.8149 33.0748 14.9909C30.904 15.2101 28.709 15.0814 26.5845 14.5977C25.8095 14.4208 25.0376 14.1845 24.3905 13.733C23.5954 13.183 23.0369 12.3454 22.6695 11.4536C22.5125 11.0755 21.4377 6.60911 21.5615 6.60911H21.2636C20.9475 6.60911 20.6879 6.36879 20.6627 6.0591C20.5872 5.02546 20.4554 2.85561 20.6828 2.19501C20.9878 1.31722 22.9443 0.507796 27.4299 0.172968C31.9185 -0.164876 37.7879 0.00404624 39.1023 0.57617C40.4146 1.14628 45.3904 1.14628 46.7007 0.57617C48.0141 0.00404624 53.8865 -0.164876 58.3721 0.172968C62.8587 0.507796 64.8162 1.31722 65.1191 2.194C65.3486 2.85561 65.2178 5.02546 65.1393 6.0591C65.1171 6.36879 64.8544 6.60911 64.5414 6.60911H64.2415C64.3673 6.60911 63.2895 11.0755 63.1355 11.4536C62.7651 12.3464 62.2076 13.183 61.4125 13.733C60.7644 14.1845 59.9924 14.4208 59.2195 14.5977C57.093 15.0814 54.898 15.2101 52.7281 14.9899C51.0172 14.8139 49.2228 14.4539 47.8128 13.4374C45.6098 11.8497 44.8227 9.12183 44.4061 6.57593C44.3276 6.09731 44.1867 5.72629 44.0226 5.44374C43.5305 4.59913 42.2715 4.59913 41.7793 5.44374ZM66.9156 28.395C66.9156 27.0638 66.4919 25.9396 65.6445 25.0226C64.7961 24.1046 63.6961 23.6451 62.3434 23.6451C60.9908 23.6451 59.8858 24.1046 59.0283 25.0226C58.1698 25.9396 57.7411 27.0638 57.7411 28.395C57.7411 29.7494 58.1698 30.8806 59.0283 31.7986C59.8858 32.7156 60.9908 33.1751 62.3434 33.1751C63.6961 33.1751 64.7961 32.7156 65.6445 31.7976C66.4919 30.8806 66.9156 29.7494 66.9156 28.395ZM66.7042 13.6636H70.9734V36.6541H66.7948V34.6271C65.4623 36.2399 63.7564 37.0473 61.6772 37.0473C59.3363 37.0473 57.3878 36.2248 55.8339 34.5818C54.279 32.9378 53.5021 30.8756 53.5021 28.395C53.5021 25.9346 54.2841 23.8774 55.849 22.2244C57.413 20.5703 59.3564 19.7438 61.6772 19.7438C63.6759 19.7438 65.3506 20.5201 66.7042 22.0725V13.6636ZM74.9095 36.6541H79.1788V20.1661H74.9085V36.6531L74.9095 36.6541ZM77.0592 13.0885C76.3125 13.0885 75.6865 13.3358 75.1813 13.8295C74.6771 14.3232 74.4244 14.9436 74.4244 15.6897C74.4244 16.4358 74.6771 17.0612 75.1813 17.5659C75.6865 18.0697 76.3125 18.3221 77.0592 18.3221C77.806 18.3221 78.432 18.0707 78.9362 17.5659C79.4404 17.0612 79.693 16.4358 79.693 15.6897C79.693 14.9436 79.4414 14.3232 78.9362 13.8295C78.432 13.3358 77.806 13.0885 77.0592 13.0885ZM107.337 20.1671L103.585 30.9058L99.3141 20.1671H94.3787L101.588 36.4721L101.251 37.2283C100.444 38.9627 99.3765 39.8305 98.042 39.8305C97.3959 39.8305 96.6894 39.6485 95.9255 39.2855L95.1959 42.855C96.0634 43.4 97.1232 43.6714 98.3751 43.6714C100.013 43.6714 101.384 43.1627 102.493 42.1441C103.603 41.1255 104.562 39.568 105.372 37.4706L112 20.1671H107.337ZM88.7166 19.592C88.7166 18.6669 88.9782 17.953 89.5036 17.4604C90.0279 16.9656 90.7858 16.7183 91.7741 16.7183C92.5208 16.7183 93.4095 16.9496 94.4411 17.4141L95.8319 14.1473C94.3173 13.3409 92.7533 12.9377 91.139 12.9377C89.1604 12.9377 87.5501 13.5017 86.3082 14.6309C85.0673 15.7611 84.4463 17.3839 84.4463 19.5015V20.1671H81.9031V23.7366H84.4473V36.6541H88.7166V23.7356H93.8332V20.1661H88.7166V19.591V19.592ZM35.1229 26.731C34.9216 25.6631 34.4577 24.8205 33.73 24.2052C33.0034 23.5908 32.0956 23.2831 31.0057 23.2831C29.9358 23.2831 29.023 23.5908 28.2652 24.2052C27.5084 24.8205 26.9981 25.6631 26.7354 26.732H35.1229V26.731ZM36.9405 21.967C38.4944 23.449 39.2714 25.4711 39.2714 28.0321C39.2714 28.6173 39.221 29.2427 39.1204 29.9073H26.7364C27.3413 32.2471 28.9465 33.4165 31.5501 33.4165C32.4388 33.4165 33.3717 33.2626 34.351 32.9479C35.3302 32.6382 36.1726 32.237 36.8791 31.7534L38.5749 34.7477C36.4957 36.26 34.0933 37.0171 31.369 37.0171C28.4624 37.0171 26.2413 36.1795 24.7075 34.5054C23.1737 32.8323 22.4058 30.7982 22.4058 28.395C22.4058 25.8944 23.2039 23.8271 24.7981 22.1942C26.3933 20.5603 28.4614 19.7438 31.0057 19.7438C33.408 19.7438 35.3856 20.4849 36.9405 21.967ZM46.2981 22.3752V20.1671H42.2081V36.6541H46.4773V28.8174C46.4773 27.104 46.8456 25.8431 47.5833 25.0367C48.32 24.2323 49.2963 23.8261 50.507 23.8261C51.1108 23.8261 51.766 23.9367 52.4725 24.1589L52.8358 20.0756C52.1706 19.8333 51.5074 19.7126 50.8381 19.7126C48.8192 19.7126 47.3056 20.6025 46.2992 22.3742L46.2981 22.3752ZM14.6554 14.2981H19.0756V36.6541H16.0201L4.42119 22.9483V36.6531H0V14.2971H2.84614L14.6554 28.1226V14.2971V14.2981Z" fill="black"/>
</svg>
