<svg width="18" height="18" viewBox="0 0 18 18" fill="none" xmlns="http://www.w3.org/2000/svg">
<path d="M9 0C13.97 0 18 4.03 18 9C18 13.97 13.97 18 9 18C4.03 18 0 13.97 0 9C0 4.03 4.03 0 9 0ZM9 2C5.134 2 2 5.134 2 9C2 12.866 5.134 16 9 16C12.866 16 16 12.866 16 9C16 5.134 12.866 2 9 2ZM9 4C9.513 4 9.93601 4.38581 9.99301 4.88281L10 5V8H13C13.552 8 14 8.448 14 9C14 9.513 13.614 9.93616 13.117 9.99316L13 10H10V13C10 13.552 9.552 14 9 14C8.487 14 8.06399 13.6142 8.00699 13.1172L8 13V10H5C4.448 10 4 9.552 4 9C4 8.487 4.386 8.06384 4.883 8.00684L5 8H8V5C8 4.448 8.448 4 9 4Z" fill="#007A5C"/>
</svg>
