<svg width="92" height="10" viewBox="0 0 92 10" fill="none" xmlns="http://www.w3.org/2000/svg">
<path d="M4.94452 9.83918L8.43377 1.33576H6.49843L4.26419 7.21486L2.01887 1.33576H0.0493164L3.58486 9.83918H4.94352H4.94452ZM10.1316 2.86611C10.4164 2.86611 10.6539 2.76959 10.8461 2.57854C11.0374 2.3865 11.134 2.1482 11.134 1.86465C11.134 1.5811 11.0374 1.34481 10.8461 1.15678C10.6539 0.968753 10.4164 0.875244 10.1316 0.875244C9.84778 0.875244 9.60926 0.968753 9.41704 1.15678C9.22582 1.34481 9.13021 1.5811 9.13021 1.86465C9.13021 2.1482 9.22582 2.3865 9.41804 2.57854C9.60926 2.76959 9.84778 2.86611 10.1326 2.86611H10.1316ZM10.9377 9.83918V3.56795H9.31438V9.83918H10.9377ZM15.216 9.988C16.007 9.988 16.6552 9.68132 17.1624 9.06797V9.83918H18.7525V1.09343H17.1282V4.2929C16.6129 3.70167 15.9758 3.40706 15.216 3.40706C14.3334 3.40706 13.5937 3.72078 12.9989 4.35022C12.4041 4.97965 12.1062 5.76192 12.1062 6.69703C12.1062 7.64118 12.4021 8.42547 12.9928 9.04987C13.5846 9.67529 14.3253 9.988 15.216 9.988ZM15.4696 8.51596C14.9553 8.51596 14.5326 8.34301 14.2015 7.99813C13.8795 7.6452 13.7185 7.21184 13.7185 6.69703C13.7185 6.19127 13.8815 5.76393 14.2086 5.41503C14.5347 5.06512 14.9553 4.89117 15.4696 4.89117C15.9829 4.89117 16.4026 5.06512 16.7246 5.41402C17.0467 5.76393 17.2077 6.19127 17.2077 6.69703C17.2077 7.21184 17.0467 7.64219 16.7246 7.9921C16.4026 8.341 15.9839 8.51495 15.4696 8.51495V8.51596ZM23.3639 9.97693C24.4006 9.97693 25.3134 9.68937 26.1044 9.11423L25.4603 7.97501C25.1906 8.15901 24.8706 8.30983 24.4982 8.42949C24.1258 8.54813 23.7705 8.60746 23.4324 8.60746C22.4421 8.60746 21.8322 8.16303 21.6007 7.27317H26.3117C26.35 7.01979 26.3691 6.78149 26.3691 6.55928C26.3691 5.58496 26.0742 4.81576 25.4835 4.25268C24.8917 3.6886 24.1389 3.40706 23.2251 3.40706C22.2589 3.40706 21.4709 3.71776 20.864 4.33915C20.2581 4.95954 19.9542 5.74684 19.9542 6.69703C19.9542 7.61001 20.2461 8.38525 20.8298 9.02172C21.4135 9.6582 22.2589 9.97693 23.3639 9.97693ZM24.792 6.06558H21.6017C21.7013 5.65836 21.8956 5.33761 22.1834 5.10433C22.4713 4.87006 22.8185 4.75241 23.2251 4.75241C23.6397 4.75241 23.9859 4.87006 24.2617 5.10433C24.5384 5.33761 24.7146 5.65735 24.792 6.06457V6.06558ZM30.5669 10.0001C31.5501 10.0001 32.3563 9.68132 32.9853 9.04485C33.6153 8.40837 33.9303 7.6261 33.9303 6.69703C33.9303 5.77701 33.6153 4.99674 32.9853 4.35625C32.3563 3.71575 31.5501 3.395 30.5669 3.395C29.5836 3.395 28.7775 3.71575 28.1484 4.35625C27.5184 4.99674 27.2034 5.77701 27.2034 6.69703C27.2034 7.6261 27.5184 8.40837 28.1484 9.04485C28.7775 9.68132 29.5836 10.0001 30.5669 10.0001ZM30.5669 8.49183C30.0757 8.49183 29.6611 8.31989 29.3229 7.97501C28.9928 7.62208 28.8278 7.19575 28.8278 6.69803C28.8278 6.19931 28.9948 5.777 29.329 5.43112C29.6631 5.08623 30.0757 4.91429 30.5669 4.91429C31.058 4.91429 31.4706 5.08623 31.8048 5.43212C32.1389 5.777 32.306 6.19931 32.306 6.69703C32.306 7.19575 32.1389 7.62007 31.8048 7.96897C31.4706 8.31788 31.058 8.49183 30.5669 8.49183ZM40.7236 9.97693C41.6525 9.97693 42.4043 9.73562 42.981 9.25198C43.5567 8.76934 43.8445 8.14694 43.8445 7.3878C43.8445 6.44465 43.3614 5.7388 42.3933 5.27024C42.1718 5.16366 41.8277 5.01183 41.3627 4.81576C40.8987 4.62069 40.6159 4.50003 40.5163 4.45378C40.0554 4.22352 39.8249 3.944 39.8249 3.6142C39.8249 3.36785 39.9235 3.17078 40.1188 3.02096C40.315 2.87114 40.5817 2.79673 40.9199 2.79673C41.2339 2.79673 41.564 2.86611 41.9102 3.00387C42.2554 3.14162 42.5472 3.33769 42.7858 3.59107L43.6946 2.34829C42.9347 1.5811 42.0018 1.197 40.8967 1.197C40.0443 1.197 39.3468 1.43329 38.8064 1.90486C38.2649 2.37744 37.9942 2.96968 37.9942 3.68257C37.9942 4.58047 38.4431 5.28633 39.3418 5.80013C39.5723 5.93084 39.9074 6.08167 40.3492 6.25461C40.791 6.42756 41.0688 6.54017 41.1846 6.59346C41.6978 6.83981 41.9555 7.13442 41.9555 7.4803C41.9555 7.74877 41.8407 7.96696 41.6103 8.13588C41.3798 8.30481 41.0879 8.38927 40.7347 8.38927C40.2979 8.38927 39.8812 8.28771 39.4857 8.0836C39.0902 7.88049 38.7541 7.58688 38.4773 7.20379L37.4991 8.38927C37.8513 8.90207 38.3122 9.29622 38.8809 9.56871C39.4495 9.84019 40.0634 9.97693 40.7236 9.97693ZM48.0765 10.0001C49.0598 10.0001 49.8659 9.68132 50.4949 9.04485C51.1249 8.40837 51.4399 7.6261 51.4399 6.69703C51.4399 5.77701 51.1249 4.99674 50.4949 4.35625C49.8659 3.71575 49.0598 3.395 48.0765 3.395C47.0942 3.395 46.2881 3.71575 45.6581 4.35625C45.0281 4.99674 44.7141 5.77701 44.7141 6.69703C44.7141 7.6261 45.0281 8.40837 45.6581 9.04485C46.2881 9.68132 47.0942 10.0001 48.0765 10.0001ZM48.0765 8.49183C47.5854 8.49183 47.1707 8.31989 46.8326 7.97501C46.5025 7.62208 46.3374 7.19575 46.3374 6.69803C46.3374 6.19931 46.5045 5.777 46.8386 5.43112C47.1727 5.08623 47.5854 4.91429 48.0765 4.91429C48.5676 4.91429 48.9802 5.08623 49.3144 5.43212C49.6485 5.777 49.8156 6.19931 49.8156 6.69703C49.8156 7.19575 49.6485 7.62007 49.3144 7.96897C48.9802 8.31788 48.5676 8.49183 48.0765 8.49183ZM54.2549 9.83918V1.09343H52.6305V9.83918H54.2549ZM58.5674 9.988C59.4661 9.988 60.1706 9.74266 60.6808 9.25198C61.1911 8.7613 61.4457 8.07455 61.4457 7.19274V3.56795H59.8224V7.19274C59.8224 7.59091 59.7117 7.90965 59.4882 8.14795C59.2668 8.38524 58.9589 8.50389 58.5674 8.50389C58.1749 8.50389 57.8689 8.38524 57.6455 8.14694C57.4241 7.90965 57.3124 7.59091 57.3124 7.19173V3.56795H55.688V7.19274C55.688 8.07455 55.9457 8.7613 56.4599 9.25198C56.9732 9.74266 57.6767 9.988 58.5674 9.988ZM65.575 9.988C66.2966 9.988 66.9146 9.81606 67.4289 9.47017L66.9458 8.1932C66.5613 8.40837 66.2121 8.51495 65.8971 8.51495C65.3063 8.51495 65.0104 8.14694 65.0104 7.41093V4.92536H67.0837V3.56795H65.0104V1.34581H63.3982V3.56694H62.3616V4.92435H63.3861V7.51349C63.3861 8.32693 63.5713 8.94128 63.9396 9.36057C64.308 9.77785 64.8534 9.98699 65.575 9.98699V9.988ZM69.0925 2.86611C69.3763 2.86611 69.6148 2.76959 69.807 2.57854C69.9982 2.3865 70.0949 2.1482 70.0949 1.86465C70.0949 1.5811 69.9982 1.34481 69.807 1.15678C69.6148 0.968753 69.3763 0.875244 69.0925 0.875244C68.8087 0.875244 68.5701 0.968753 68.3779 1.15678C68.1867 1.34481 68.0911 1.5811 68.0911 1.86465C68.0911 2.1482 68.1867 2.3865 68.3789 2.57854C68.5701 2.76959 68.8087 2.86611 69.0935 2.86611H69.0925ZM69.8986 9.83918V3.56795H68.2763V9.83918H69.8996H69.8986ZM74.4305 10.0001C75.4128 10.0001 76.2189 9.68132 76.8489 9.04485C77.4779 8.40837 77.7929 7.6261 77.7929 6.69703C77.7929 5.77701 77.4779 4.99674 76.8489 4.35625C76.2189 3.71575 75.4128 3.395 74.4305 3.395C73.4472 3.395 72.6411 3.71575 72.0111 4.35625C71.3821 4.99674 71.0671 5.77701 71.0671 6.69703C71.0671 7.6261 71.3821 8.40837 72.0111 9.04485C72.6411 9.68132 73.4472 10.0001 74.4305 10.0001ZM74.4305 8.49183C73.9384 8.49183 73.5247 8.31989 73.1866 7.97501C72.8565 7.62208 72.6914 7.19575 72.6914 6.69803C72.6914 6.19931 72.8585 5.777 73.1916 5.43112C73.5257 5.08623 73.9384 4.91429 74.4295 4.91429C74.9216 4.91429 75.3343 5.08623 75.6674 5.43212C76.0025 5.777 76.1696 6.19931 76.1696 6.69703C76.1696 7.19575 76.0025 7.62007 75.6684 7.96897C75.3343 8.31788 74.9216 8.49183 74.4305 8.49183ZM80.6079 9.83918V6.47884C80.6079 6.01128 80.7407 5.6292 81.0054 5.33358C81.2701 5.03897 81.6183 4.89117 82.0481 4.89117C82.4476 4.89117 82.7676 5.0249 83.0092 5.29337C83.2507 5.56183 83.3715 5.94593 83.3715 6.44465V9.83918H84.9958V6.00726C84.9958 5.1707 84.7583 4.52618 84.2823 4.07371C83.8063 3.62124 83.2266 3.395 82.5432 3.395C82.0984 3.395 81.7008 3.49253 81.3516 3.6886C81.0014 3.88467 80.7427 4.13504 80.5737 4.44272V3.56795H78.9835V9.83918H80.6079ZM88.5374 10.0001C89.2892 10.0001 89.8941 9.81002 90.351 9.42995C90.8079 9.05088 91.0364 8.56925 91.0364 7.98606C91.0364 7.2963 90.6841 6.76641 89.9766 6.39739C89.8005 6.3069 89.2973 6.10278 88.468 5.78806C88.0996 5.66539 87.9145 5.47435 87.9145 5.21292C87.9145 5.06713 87.9809 4.94245 88.1107 4.83889C88.2415 4.73532 88.4146 4.68404 88.629 4.68404C89.1524 4.68404 89.6314 4.89117 90.0682 5.30543L90.8753 4.25771C90.2997 3.65944 89.567 3.36081 88.6753 3.36081C87.9688 3.36081 87.4012 3.53678 86.9704 3.8897C86.5407 4.24263 86.3263 4.6951 86.3263 5.24711C86.3263 5.98414 86.6866 6.52408 87.4082 6.86997C87.5471 6.93935 87.8158 7.04794 88.2144 7.19776C88.6139 7.34758 88.8635 7.44511 88.9631 7.49136C89.263 7.62912 89.412 7.8101 89.412 8.03232C89.412 8.20828 89.3295 8.35408 89.1644 8.46971C88.9994 8.58433 88.7941 8.64164 88.5485 8.64164C88.2335 8.64164 87.9215 8.56321 87.6105 8.40636C87.2985 8.2485 87.0318 8.03634 86.8094 7.76787L85.9459 8.79146C86.583 9.59686 87.4465 10.0001 88.5374 10.0001Z" fill="black"/>
</svg>
